<?xml version="1.0" encoding="utf-8"?>
<!-- Generator: Adobe Illustrator 26.5.0, SVG Export Plug-In . SVG Version: 6.00 Build 0)  -->
<svg version="1.1" id="Capa_1" xmlns="http://www.w3.org/2000/svg" xmlns:xlink="http://www.w3.org/1999/xlink" x="0px" y="0px"
	 viewBox="0 0 24 24" style="enable-background:new 0 0 24 24;" xml:space="preserve">
<style type="text/css">
	.st0{fill:none;stroke:#000000;stroke-width:2;stroke-linecap:round;stroke-linejoin:round;}
</style>
<path class="st0" d="M11,5.9v13.4c0,0.4-0.1,0.8-0.4,1.1c-0.3,0.3-0.6,0.5-1,0.6c-0.4,0.1-0.8,0-1.2-0.2c-0.4-0.2-0.6-0.5-0.8-0.9
	l-2.1-6.2 M5.4,13.7c-0.8-0.4-1.5-1-2-1.8C3,11,2.9,10.1,3.1,9.2c0.2-0.9,0.7-1.7,1.4-2.3S6.1,6,7,6h1.8c4.1,0,7.6-1.2,9.2-3v14
	c-1.5-1.8-5.1-3-9.2-3H7C6.5,14,5.9,13.9,5.4,13.7z M18,13c0.8,0,1.6-0.3,2.1-0.9c0.6-0.6,0.9-1.3,0.9-2.1c0-0.8-0.3-1.6-0.9-2.1
	C19.6,7.3,18.8,7,18,7V13z"/>
</svg>
