<?xml version="1.0" encoding="utf-8"?>
<!-- Generator: Adobe Illustrator 26.5.0, SVG Export Plug-In . SVG Version: 6.00 Build 0)  -->
<svg version="1.1" id="Capa_1" xmlns="http://www.w3.org/2000/svg" xmlns:xlink="http://www.w3.org/1999/xlink" x="0px" y="0px"
	 viewBox="0 0 24 24" style="enable-background:new 0 0 24 24;" xml:space="preserve">
<style type="text/css">
	.st0{fill:none;stroke:#000000;stroke-width:2;stroke-linecap:round;stroke-linejoin:round;}
</style>
<g>
	<path class="st0" d="M8.2,9c0.5-1.2,2-2,3.8-2c2.2,0,4,1.3,4,3c0,1.4-1.3,2.6-3,2.9c-0.5,0.1-1,0.5-1,1.1 M12,17L12,17 M21,12
		c0,1.2-0.2,2.4-0.7,3.4c-0.5,1.1-1.1,2.1-2,2.9c-0.8,0.8-1.8,1.5-2.9,2C14.4,20.8,13.2,21,12,21s-2.4-0.2-3.4-0.7
		c-1.1-0.5-2.1-1.1-2.9-2c-0.8-0.8-1.5-1.8-2-2.9C3.2,14.4,3,13.2,3,12c0-2.4,0.9-4.7,2.6-6.4S9.6,3,12,3c2.4,0,4.7,0.9,6.4,2.6
		C20.1,7.3,21,9.6,21,12z"/>
</g>
</svg>
