<?xml version="1.0" encoding="utf-8"?>
<!-- Generator: Adobe Illustrator 26.5.0, SVG Export Plug-In . SVG Version: 6.00 Build 0)  -->
<svg version="1.1" id="Capa_1" xmlns="http://www.w3.org/2000/svg" xmlns:xlink="http://www.w3.org/1999/xlink" x="0px" y="0px"
	 viewBox="0 0 24 24" style="enable-background:new 0 0 24 24;" xml:space="preserve">
<style type="text/css">
	.st0{fill:none;stroke:#000000;stroke-width:2;stroke-linecap:round;stroke-linejoin:round;}
</style>
<g>
	<path class="st0" d="M13.7,4.3c-0.4-1.8-2.9-1.8-3.4,0C10,5.5,8.7,6,7.8,5.4C6.2,4.4,4.4,6.2,5.4,7.8C5.5,8,5.6,8.2,5.6,8.5
		c0,0.3,0,0.5-0.1,0.8C5.4,9.6,5.2,9.8,5,10c-0.2,0.2-0.5,0.3-0.7,0.4c-1.8,0.4-1.8,2.9,0,3.4C4.6,13.7,4.8,13.9,5,14
		c0.2,0.2,0.4,0.4,0.5,0.6c0.1,0.3,0.1,0.5,0.1,0.8c0,0.3-0.1,0.5-0.2,0.8c-0.9,1.5,0.8,3.3,2.4,2.4c0.2-0.1,0.5-0.2,0.8-0.2
		c0.3,0,0.5,0,0.8,0.1c0.3,0.1,0.5,0.3,0.6,0.5c0.2,0.2,0.3,0.5,0.4,0.7c0.4,1.8,2.9,1.8,3.4,0c0.1-0.3,0.2-0.5,0.4-0.7
		c0.2-0.2,0.4-0.4,0.6-0.5c0.3-0.1,0.5-0.1,0.8-0.1c0.3,0,0.5,0.1,0.8,0.2c1.5,0.9,3.3-0.8,2.4-2.4c-0.1-0.2-0.2-0.5-0.2-0.8
		s0-0.5,0.1-0.8c0.1-0.3,0.3-0.5,0.5-0.6s0.5-0.3,0.7-0.4c1.8-0.4,1.8-2.9,0-3.4c-0.3-0.1-0.5-0.2-0.7-0.4c-0.2-0.2-0.4-0.4-0.5-0.6
		c-0.1-0.3-0.1-0.5-0.1-0.8c0-0.3,0.1-0.5,0.2-0.8c0.9-1.5-0.8-3.3-2.4-2.4c-0.2,0.1-0.5,0.2-0.8,0.2s-0.5,0-0.8-0.1
		C14.4,5.4,14.2,5.2,14,5S13.7,4.6,13.7,4.3z"/>
	<path class="st0" d="M14.1,14.1c0.6-0.6,0.9-1.3,0.9-2.1s-0.3-1.6-0.9-2.1C13.6,9.3,12.8,9,12,9s-1.6,0.3-2.1,0.9
		C9.3,10.4,9,11.2,9,12s0.3,1.6,0.9,2.1c0.6,0.6,1.3,0.9,2.1,0.9S13.6,14.7,14.1,14.1z"/>
</g>
</svg>
