<?xml version="1.0" encoding="utf-8"?>
<!-- Generator: Adobe Illustrator 26.5.0, SVG Export Plug-In . SVG Version: 6.00 Build 0)  -->
<svg version="1.1" id="Capa_1" xmlns="http://www.w3.org/2000/svg" xmlns:xlink="http://www.w3.org/1999/xlink" x="0px" y="0px"
	 viewBox="0 0 24 24" style="enable-background:new 0 0 24 24;" xml:space="preserve">
<style type="text/css">
	.st0{fill:none;stroke:#000000;stroke-width:2;stroke-linecap:round;stroke-linejoin:round;}
</style>
<g>
	<path class="st0" d="M3.7,3.7C3.2,4.1,3,4.7,3,5.2v2.2c0,0.6,0.2,1.2,0.7,1.6c0.4,0.4,1,0.7,1.6,0.7h2.2c0.6,0,1.2-0.2,1.6-0.7
		c0.4-0.4,0.7-1,0.7-1.6V5.2c0-0.6-0.2-1.2-0.7-1.6C8.7,3.2,8.1,3,7.5,3H5.2C4.7,3,4.1,3.2,3.7,3.7z"/>
	<path class="st0" d="M14.9,3.7c-0.4,0.4-0.7,1-0.7,1.6v2.2c0,0.6,0.2,1.2,0.7,1.6c0.4,0.4,1,0.7,1.6,0.7h2.2c0.6,0,1.2-0.2,1.6-0.7
		c0.4-0.4,0.7-1,0.7-1.6V5.2c0-0.6-0.2-1.2-0.7-1.6c-0.4-0.4-1-0.7-1.6-0.7h-2.2C15.9,3,15.3,3.2,14.9,3.7z"/>
	<path class="st0" d="M3.7,14.9c-0.4,0.4-0.7,1-0.7,1.6v2.2c0,0.6,0.2,1.2,0.7,1.6c0.4,0.4,1,0.7,1.6,0.7h2.2c0.6,0,1.2-0.2,1.6-0.7
		c0.4-0.4,0.7-1,0.7-1.6v-2.2c0-0.6-0.2-1.2-0.7-1.6c-0.4-0.4-1-0.7-1.6-0.7H5.2C4.7,14.2,4.1,14.5,3.7,14.9z"/>
	<path class="st0" d="M14.9,14.9c-0.4,0.4-0.7,1-0.7,1.6v2.2c0,0.6,0.2,1.2,0.7,1.6c0.4,0.4,1,0.7,1.6,0.7h2.2
		c0.6,0,1.2-0.2,1.6-0.7c0.4-0.4,0.7-1,0.7-1.6v-2.2c0-0.6-0.2-1.2-0.7-1.6c-0.4-0.4-1-0.7-1.6-0.7h-2.2
		C15.9,14.2,15.3,14.5,14.9,14.9z"/>
</g>
</svg>
