<?xml version="1.0" encoding="utf-8"?>
<!-- Generator: Adobe Illustrator 26.5.0, SVG Export Plug-In . SVG Version: 6.00 Build 0)  -->
<svg version="1.1" id="Capa_1" xmlns="http://www.w3.org/2000/svg" xmlns:xlink="http://www.w3.org/1999/xlink" x="0px" y="0px"
	 viewBox="0 0 24 24" style="enable-background:new 0 0 24 24;" xml:space="preserve">
<style type="text/css">
	.st0{fill:none;stroke:#000000;stroke-width:2;stroke-linecap:round;stroke-linejoin:round;}
</style>
<path class="st0" d="M17,16l4-4 M21,12l-4-4 M21,12H7 M13,16v1c0,0.8-0.3,1.6-0.9,2.1C11.6,19.7,10.8,20,10,20H6
	c-0.8,0-1.6-0.3-2.1-0.9C3.3,18.6,3,17.8,3,17V7c0-0.8,0.3-1.6,0.9-2.1S5.2,4,6,4h4c0.8,0,1.6,0.3,2.1,0.9S13,6.2,13,7v1"/>
</svg>
