<?xml version="1.0" encoding="utf-8"?>
<!-- Generator: Adobe Illustrator 26.5.0, SVG Export Plug-In . SVG Version: 6.00 Build 0)  -->
<svg version="1.1" id="Capa_1" xmlns="http://www.w3.org/2000/svg" xmlns:xlink="http://www.w3.org/1999/xlink" x="0px" y="0px"
	 viewBox="0 0 24 24" style="enable-background:new 0 0 24 24;" xml:space="preserve">
<style type="text/css">
	.st0{fill:none;stroke:#000000;stroke-width:2;stroke-linecap:round;stroke-linejoin:round;}
</style>
<path class="st0" d="M15,17h5l-1.4-1.4c-0.4-0.4-0.6-0.9-0.6-1.4V11c0-2.6-1.7-4.8-4-5.7V5c0-1.1-0.9-2-2-2s-2,0.9-2,2v0.3
	c-2.3,0.8-4,3-4,5.7v3.2c0,0.5-0.2,1.1-0.6,1.4L4,17h5 M15,17v1c0,1.7-1.3,3-3,3s-3-1.3-3-3v-1 M15,17H9"/>
</svg>
