<?xml version="1.0" encoding="utf-8"?>
<!-- Generator: Adobe Illustrator 26.5.0, SVG Export Plug-In . SVG Version: 6.00 Build 0)  -->
<svg version="1.1" id="Capa_1" xmlns="http://www.w3.org/2000/svg" xmlns:xlink="http://www.w3.org/1999/xlink" x="0px" y="0px"
	 viewBox="0 0 24 24" style="enable-background:new 0 0 24 24;" xml:space="preserve">
<style type="text/css">
	.st0{fill:none;stroke:#000000;stroke-width:2;stroke-linecap:round;stroke-linejoin:round;}
</style>
<g>
	<path class="st0" d="M14.8,9.8C15.6,9.1,16,8.1,16,7s-0.4-2.1-1.2-2.8C14.1,3.4,13.1,3,12,3S9.9,3.4,9.2,4.2C8.4,4.9,8,5.9,8,7
		s0.4,2.1,1.2,2.8C9.9,10.6,10.9,11,12,11S14.1,10.6,14.8,9.8z"/>
	<path class="st0" d="M7.1,16.1C8.4,14.7,10.1,14,12,14s3.6,0.7,4.9,2.1c1.3,1.3,2.1,3.1,2.1,4.9H5C5,19.1,5.7,17.4,7.1,16.1z"/>
</g>
</svg>
