<?xml version="1.0" encoding="utf-8"?>
<!-- Generator: Adobe Illustrator 26.5.0, SVG Export Plug-In . SVG Version: 6.00 Build 0)  -->
<svg version="1.1" id="Capa_1" xmlns="http://www.w3.org/2000/svg" xmlns:xlink="http://www.w3.org/1999/xlink" x="0px" y="0px"
	 viewBox="0 0 24 24" style="enable-background:new 0 0 24 24;" xml:space="preserve">
<style type="text/css">
	.st0{fill:none;stroke:#000000;stroke-width:2;stroke-linecap:round;stroke-linejoin:round;}
</style>
<path class="st0" d="M12.6,3.6C12.2,4,12,4.5,12,5v1c0,0.3-0.1,0.5-0.3,0.7C11.5,6.9,11.3,7,11,7H8C7.7,7,7.5,7.1,7.3,7.3
	C7.1,7.5,7,7.7,7,8v3c0,0.3-0.1,0.5-0.3,0.7C6.5,11.9,6.3,12,6,12H5c-0.5,0-1,0.2-1.4,0.6C3.2,13,3,13.5,3,14s0.2,1,0.6,1.4
	C4,15.8,4.5,16,5,16h1c0.3,0,0.5,0.1,0.7,0.3C6.9,16.5,7,16.7,7,17v3c0,0.3,0.1,0.5,0.3,0.7C7.5,20.9,7.7,21,8,21h3
	c0.3,0,0.5-0.1,0.7-0.3S12,20.3,12,20v-1c0-0.5,0.2-1,0.6-1.4C13,17.2,13.5,17,14,17s1,0.2,1.4,0.6C15.8,18,16,18.5,16,19v1
	c0,0.3,0.1,0.5,0.3,0.7S16.7,21,17,21h3c0.3,0,0.5-0.1,0.7-0.3S21,20.3,21,20v-3c0-0.3-0.1-0.5-0.3-0.7S20.3,16,20,16h-1
	c-0.5,0-1-0.2-1.4-0.6C17.2,15,17,14.5,17,14s0.2-1,0.6-1.4C18,12.2,18.5,12,19,12h1c0.3,0,0.5-0.1,0.7-0.3S21,11.3,21,11V8
	c0-0.3-0.1-0.5-0.3-0.7C20.5,7.1,20.3,7,20,7h-3c-0.3,0-0.5-0.1-0.7-0.3C16.1,6.5,16,6.3,16,6V5c0-0.5-0.2-1-0.6-1.4
	C15,3.2,14.5,3,14,3S13,3.2,12.6,3.6z"/>
</svg>
