<?xml version="1.0" encoding="utf-8"?>
<!-- Generator: Adobe Illustrator 26.5.0, SVG Export Plug-In . SVG Version: 6.00 Build 0)  -->
<svg version="1.1" id="Capa_1" xmlns="http://www.w3.org/2000/svg" xmlns:xlink="http://www.w3.org/1999/xlink" x="0px" y="0px"
	 viewBox="0 0 544 544" style="enable-background:new 0 0 544 544;" xml:space="preserve">
<style type="text/css">
	.st0{fill:#3D4A83;}
	.st1{fill:#02B4D9;}
	.st2{fill:#0193BE;}
	.st3{fill:#0FD2ED;}
	.st4{fill:#2778A4;}
</style>
<g>
	<path class="st0" d="M164.2,506.5c-56.8-24.9-101.8-69.9-126.7-126.7c-1.6-3.5-5.7-5.1-9.2-3.6c-3.5,1.5-5.1,5.7-3.6,9.2
		C51,445.5,98.6,493,158.6,519.3c0.9,0.4,1.9,0.6,2.8,0.6c2.7,0,5.3-1.6,6.4-4.2C169.4,512.2,167.7,508.1,164.2,506.5z"/>
	<path class="st0" d="M297.8,524.5c-27.9,4-57,3.1-84.6-2.5c-3.8-0.8-7.5,1.7-8.2,5.4c-0.8,3.8,1.7,7.5,5.4,8.2
		c17.1,3.5,34.7,5.3,52.3,5.3c12.4,0,24.9-0.9,37.1-2.6c3.8-0.5,6.5-4.1,5.9-7.9C305.2,526.6,301.6,524,297.8,524.5z"/>
	<path class="st0" d="M280.2,3c-11.7,0-21.7,7.9-24.7,18.7C115.6,25.6,3,140.5,3,281.3c0,25.3,3.6,50.2,10.8,74.2c0.9,3,3.7,5,6.7,5
		c0.7,0,1.3-0.1,2-0.3c3.7-1.1,5.8-5,4.7-8.7C20.4,328.8,17,305.2,17,281.3C17,148.2,123.3,39.5,255.5,35.7
		c3.1,10.7,12.9,18.5,24.6,18.5c14.1,0,25.6-11.5,25.6-25.6S294.3,3,280.2,3z M280.2,40.3c-6.4,0-11.6-5.2-11.6-11.6
		c0-6.4,5.2-11.6,11.6-11.6c6.4,0,11.6,5.2,11.6,11.6C291.8,35,286.6,40.3,280.2,40.3z"/>
	<path class="st0" d="M515.4,238.2c-14.1,0-25.6,11.5-25.6,25.6c0,11.7,7.8,21.5,18.5,24.6c-1.4,50.7-18.1,98.7-48.4,139.4
		c-30.7,41.2-74.4,72.4-123.1,87.8c-3.7,1.2-5.7,5.1-4.6,8.8c0.9,3,3.7,4.9,6.7,4.9c0.7,0,1.4-0.1,2.1-0.3
		c52.2-16.5,97.2-48.6,130.1-92.7c32.1-43.1,49.7-94,51.1-147.7c10.8-3,18.7-12.9,18.7-24.7C541,249.7,529.5,238.2,515.4,238.2z
		 M515.4,275.5c-6.4,0-11.6-5.2-11.6-11.6c0-6.4,5.2-11.6,11.6-11.6c6.4,0,11.6,5.2,11.6,11.6C527,270.3,521.8,275.5,515.4,275.5z"
		/>
</g>
<path class="st1" d="M403.6,263.8c0-14.1-11.5-25.6-25.6-25.6c-14.1,0-25.6,11.5-25.6,25.6c0,12.4,8.9,22.8,20.7,25.1
	c-4,57.4-51.9,103-110.4,103c-61,0-110.6-49.6-110.6-110.6c0-61,49.6-110.6,110.6-110.6c3.9,0,7-3.1,7-7s-3.1-7-7-7
	c-68.7,0-124.6,55.9-124.6,124.6S194,405.9,262.7,405.9c66.5,0,121.1-52.4,124.4-118.1C396.7,284.1,403.6,274.8,403.6,263.8z
	 M378,275.5c-6.4,0-11.6-5.2-11.6-11.6c0-6.4,5.2-11.6,11.6-11.6c6.4,0,11.6,5.2,11.6,11.6C389.6,270.3,384.4,275.5,378,275.5z"/>
<g>
	<path class="st2" d="M248.2,435.5c-30.2-2.8-58.7-14.3-82.4-33.4c-3-2.4-7.4-1.9-9.8,1.1c-2.4,3-1.9,7.4,1.1,9.8
		c25.8,20.8,56.9,33.3,89.9,36.4c0.2,0,0.4,0,0.7,0c3.6,0,6.6-2.7,6.9-6.3C254.9,439.3,252,435.9,248.2,435.5z"/>
	<path class="st2" d="M361.7,180c0,14.1,11.5,25.6,25.6,25.6s25.6-11.5,25.6-25.6s-11.5-25.6-25.6-25.6c-3.8,0-7.4,0.8-10.7,2.3
		c-0.2-0.2-0.3-0.4-0.5-0.5c-31.1-28.2-71.4-43.7-113.4-43.7c-93.1,0-168.9,75.7-168.9,168.9c0,34.7,10.4,68,30.1,96.3
		c1.4,2,3.5,3,5.7,3c1.4,0,2.8-0.4,4-1.3c3.2-2.2,4-6.6,1.7-9.7c-18.1-26-27.6-56.5-27.6-88.3c0-85.4,69.5-154.9,154.9-154.9
		c38.2,0,74.8,14,103.2,39.4C363.2,169.9,361.7,174.8,361.7,180z M387.3,168.4c6.4,0,11.6,5.2,11.6,11.6c0,6.4-5.2,11.6-11.6,11.6
		c-6.4,0-11.6-5.2-11.6-11.6C375.6,173.6,380.9,168.4,387.3,168.4z"/>
	<path class="st2" d="M387.3,357c-14.1,0-25.6,11.5-25.6,25.6c0,5.2,1.6,10.1,4.3,14.1c-24.3,21.8-54.2,35.1-86.5,38.5
		c-3.8,0.4-6.6,3.9-6.2,7.7c0.4,3.6,3.4,6.2,6.9,6.2c0.2,0,0.5,0,0.8,0c35.6-3.8,68.5-18.6,95.2-42.8c0.2-0.2,0.4-0.3,0.5-0.5
		c3.3,1.5,6.9,2.3,10.7,2.3c14.1,0,25.6-11.5,25.6-25.6S401.4,357,387.3,357z M387.3,394.3c-6.4,0-11.6-5.2-11.6-11.6
		c0-6.4,5.2-11.6,11.6-11.6c6.4,0,11.6,5.2,11.6,11.6C398.9,389,393.7,394.3,387.3,394.3z"/>
</g>
<g>
	<path class="st3" d="M288.6,341.2c-8.2,3.5-16.9,5.3-25.9,5.3c-32.7,0-59.8-24.2-64.5-55.6c11-2.9,19.1-12.9,19.1-24.8
		c0-14.1-11.5-25.6-25.6-25.6S166,252.1,166,266.2c0,11.5,7.6,21.2,18,24.5c4.6,39.3,38.1,69.9,78.6,69.9c10.9,0,21.5-2.2,31.4-6.5
		c3.5-1.5,5.2-5.6,3.6-9.2C296.2,341.3,292.1,339.7,288.6,341.2z M180,266.2c0-6.4,5.2-11.6,11.6-11.6c6.4,0,11.6,5.2,11.6,11.6
		c0,6.4-5.2,11.6-11.6,11.6C185.2,277.8,180,272.6,180,266.2z"/>
	<path class="st3" d="M262.7,202.1c-3.9,0-7,3.1-7,7s3.1,7,7,7c36,0,65.2,29.3,65.2,65.2c0,14.5-4.7,28.2-13.5,39.7
		c-2.4,3.1-1.8,7.4,1.3,9.8c1.3,1,2.8,1.4,4.3,1.4c2.1,0,4.2-0.9,5.5-2.7c10.7-13.9,16.3-30.6,16.3-48.2
		C341.9,237.7,306.3,202.1,262.7,202.1z"/>
</g>
<g>
	<path class="st4" d="M75.2,195.3c1,0.5,2.1,0.7,3.1,0.7c2.6,0,5-1.4,6.3-3.9c19.6-39.1,52.1-71.2,91.5-90.2
		c3.5-1.7,4.9-5.9,3.2-9.3c-1.7-3.5-5.9-4.9-9.3-3.2c-42.1,20.4-76.9,54.7-97.9,96.6C70.3,189.4,71.7,193.6,75.2,195.3z"/>
	<path class="st4" d="M272.3,68.4c-3-10.9-12.9-18.9-24.7-18.9c-14.1,0-25.6,11.5-25.6,25.6s11.5,25.6,25.6,25.6
		c11.6,0,21.5-7.8,24.6-18.4c105.4,4.9,189.7,92.3,189.7,198.9c0,8.3-0.5,16.8-1.6,25c-0.5,3.8,2.2,7.3,6.1,7.8
		c0.3,0,0.6,0.1,0.9,0.1c3.5,0,6.5-2.6,6.9-6.1c1.1-8.8,1.7-17.8,1.7-26.7C475.8,167,385.3,73.5,272.3,68.4z M247.5,86.8
		c-6.4,0-11.6-5.2-11.6-11.6c0-6.4,5.2-11.6,11.6-11.6c6.4,0,11.6,5.2,11.6,11.6C259.2,81.6,254,86.8,247.5,86.8z"/>
	<path class="st4" d="M461.6,335.9c-3.7-1.1-7.6,0.9-8.7,4.6c-12.3,39.7-37.6,75.3-71,100.4c-34.6,25.9-75.8,39.6-119.1,39.6
		c-107.4,0-195.2-85.5-199-192c10.7-3.1,18.5-12.9,18.5-24.6c0-14.1-11.5-25.6-25.6-25.6s-25.6,11.5-25.6,25.6
		c0,11.8,8,21.7,18.8,24.7c3.8,114.2,97.9,205.9,213,205.9c46.4,0,90.5-14.6,127.5-42.3c35.8-26.8,62.8-64.9,76-107.4
		C467.4,341,465.3,337.1,461.6,335.9z M44.9,263.8c0-6.4,5.2-11.6,11.6-11.6c6.4,0,11.6,5.2,11.6,11.6c0,6.4-5.2,11.6-11.6,11.6
		C50.1,275.5,44.9,270.3,44.9,263.8z"/>
</g>
</svg>
